<svg xmlns="http://www.w3.org/2000/svg" width="67.882" height="67.882" viewBox="0 0 67.882 67.882">
  <path fill="rgb(255,255,255)" fill-rule="evenodd" d="M44.54773218 16.26345895c1.56104957-1.5610487 4.09581634-1.5610372 5.65685425.00000158l1.41421316 1.41421396c1.56103791 1.56103879 1.56104799 4.09580556-.00000158 5.65685425L41.0121933 33.94112748l10.60659874 10.6066047c1.5610379 1.56103878 1.56104798 4.09580555-.0000016 5.65685425l-1.41421395 1.41421316c-1.56104958 1.5610487-4.09581634 1.5610372-5.65685425-.00000158L33.94112351 41.0121933l-10.6066047 10.60659874c-1.56104957 1.5610487-4.09581634 1.5610372-5.65685424-.0000016L16.2634514 50.2045765c-1.5610379-1.56103879-1.56104799-4.09580555.00000159-5.65685425l10.6066047-10.60659874-10.60659874-10.6066047c-1.56103791-1.56103878-1.56104799-4.09580555.00000158-5.65685424l1.41421396-1.41421317c1.56104958-1.5610487 4.09581635-1.5610372 5.65685425.00000159l10.60659874 10.6066047 10.6066047-10.60659874z"/>
</svg>
