<svg xmlns="http://www.w3.org/2000/svg" xmlns:xlink="http://www.w3.org/1999/xlink" width="58.007" height="54.074" viewBox="0 0 58.007 54.074">
  <defs>
    <path id="path-2" fill-rule="evenodd" d="M2.40372677 2.6468464h53.2v48.77990685h-53.2V2.64684641z"/>
    <mask id="mask-3" maskContentUnits="userSpaceOnUse" maskUnits="userSpaceOnUse">
      <rect width="58.007" height="54.074" x="0" y="0" fill="black"/>
      <use fill="white" xlink:href="#path-2"/>
    </mask>
  </defs>
  <g transform="rotate(6.000002 29.00372677 27.03679983)">
    <path fill="rgb(255,255,255)" fill-rule="evenodd" d="M12.90412677 7.3468464c2-.8 5.6-.4 6.8 2 .8 2 1.6 4.8 1.6 4.4 0-1.6 0-4.8.4-6.4.4-1.2 1.2-2.4 2.8-2.8 1.2-.4 2.4-.4 3.6-.4 1.2.4 2.4 1.2 3.2 2 1.6 2.4 1.6 7.6 1.6 7.2.4-1.2.4-4.8 1.2-6.4.4-.8 2-1.6 2.8-2 1.2-.4 2.8-.4 4 0 .8 0 2.4 1.2 2.8 2 .8 1.2 1.2 5.2 1.6 6.8 0 .4.4-1.6 1.2-2.8 1.6-2.4 7.2-3.2 7.6 2.4v9.2c0 1.6-.4 5.2-.8 6.8-.4 1.2-1.6 4-2.8 5.6 0 0-4.4 4.8-4.8 7.2-.4 2.4-.4 2.4-.4 4s.4 3.6.4 3.6-3.2.4-4.8 0c-1.6-.4-3.6-3.2-4-4.4-.8-1.2-2-1.2-2.8 0-.8 1.6-2.8 4.4-4 4.4-2.8.4-8.4 0-12.4 0 0 0 .8-4-.8-5.6l-4.4-4.4-3.2-3.6c-1.2-1.6-4-3.6-4.8-8-.8-3.6-.8-5.6 0-7.2.8-1.6 2.8-2.4 3.6-2.4.8 0 2.8 0 3.6.4.8.4 1.2.8 2 1.6.8 1.2 1.2 2 .8.4-.4-1.2-1.2-2.4-1.6-4-.4-1.6-1.6-3.6-1.6-6-2 0-1.6-2.4 1.6-3.6"/>
    <g>
      <use fill="none" xlink:href="#path-2"/>
      <g mask="url(#mask-3)">
        <path fill="rgb(0,0,0)" fill-rule="evenodd" d="M51.6693058 7.7980733c2.29199218.60400391 3.72802734 2.5880127 3.93200683 5.44006348l.00402832 9.3079834c0 1.66003418-.40002442 5.36791992-.84399414 7.16394043-.42803955 1.28808594-1.68804932 4.3079834-3.05999756 6.13598633-1.7960205 1.9720459-4.29199219 5.19604492-4.51605225 6.5480957-.37994385 2.27600098-.37994385 2.27600098-.37994385 3.75195313 0 1.42797851.36798096 3.28796386.37194825 3.3079834.0760498.40795898-.0119629.83203125-.25994873 1.17199707-.24005127.33605957-.61199952.55603027-1.02801514.60803222-.35601807.04394532-3.52398682.43200684-5.35601807-.03601074-2.15197754-.53601074-4.23999023-3.5-4.9119873-5.01599121-.3760376.22802734-2.9119873 5.06396484-5.51599121 5.06396484-.88800049.13598633-2.12799072.18005371-3.52801514.18005371-1.42797851 0-3.02398682-.04797363-4.5960083-.09606933-1.4960022-.039917-2.97198486-.08398438-4.27999878-.08398438-.44799805 0-.87197876-.20397949-1.15600586-.54797363-.28399658-.34802246-.3999939-.80395508-.3119812-1.24401855.25598145-1.30395508.3079834-3.54797364-.38800049-4.24401856l-4.4039917-4.40795898-3.25601196-3.66003418c-.32800293-.41992188-.64801025-.76391602-1-1.14794922-1.37600708-1.49206543-3.45999146-3.74401856-4.16000366-7.5760498-.86801148-3.90795899-.83200073-6.2039795.13601684-8.1439209 1.05599976-2.10400391 3.54797364-3.22802735 4.94400025-3.22802735 1.19198608 0 2.3959961.03601074 3.33999634.2479248-.11599732-.46398925-.31201172-.95593261-.51202393-1.49194335-.3959961-1.03601075-.86798096-2.2680664-1.05200195-3.67199707-.66397095-.33605957-1.12399292-.9239502-1.25997925-1.6760254-.31600952-1.7359619 1.18798828-3.5439453 3.73999023-4.50402831 2.14401245-.84399414 5.75601197-.68395997 7.7919922 1.460083.03201293-.15197754.05999755-.29199218.0960083-.42797851.7000122-2.12011719 2.03601073-3.42810059 3.8920288-3.89208985 1.31994629-.44396972 2.72399902-.44396972 3.96398926-.44396972.15997314 0 .32000732.0279541.47198486.0760498 1.33599854.44396973 2.75201416 1.32800293 3.7880249 2.3638916.19995118.29211426.37994385.60803223.53997803.94006348.65197754-1.01599121 2.03997803-1.77600098 3.3079834-2.4119873 1.64801025-.57202149 3.50402832-.59606934 4.97601318-.1480713 1.51202393.18811036 3.33197022 1.7640381 3.85601807 2.81201173.39196777.57202148.67596435 1.60009765.95599365 2.9720459 1.43597412-1.33203126 3.7119751-1.96398926 5.66796875-1.45202637zm.21203612 21.0720215c.33996582-1.3959961.72399903-4.90405274.72399903-6.32397462v-9.20007324c-.10803223-1.4519043-.684021-2.38000488-1.70404053-2.64794922-1.19995117-.31604004-2.63598633.31201172-3.15197754 1.07995606-.3959961.60009765-.71600342 1.6040039-.86798096 2.0880127-.33599853 1.07202148-.92004394 1.55200194-1.7960205 1.41601562-.73199463-.11193848-1.27996827-.79602051-1.27996827-1.53601075-.09204101-.17199707-.22802734-.96801757-.3760376-1.84399414-.21197509-1.2479248-.6040039-3.57202148-.97601318-4.12402343-.28399658-.51599122-1.25195312-1.25195313-1.63598632-1.3359375-.15997315 0-.23596192-.02001954-.39196778-.07202149-.88800049-.2960205-2.14001465-.30004883-3.05200195 0-1.34399414.6920166-1.81201172 1.07995606-1.94000244 1.26794434-.35198975.70800781-.54003907 2.37609863-.6760254 3.59606933-.11596679 1.02001953-.21600341 1.90393067-.4119873 2.5279541-.17602539.62402344-.74798584 1.0999756-1.42797851 1.10803223-.68804932 0-1.49603272-.66394043-1.51605225-1.4880371-.03997803-1.68395997-.36798096-4.93200684-1.34399414-6.40393067-.47198486-.43200684-1.38000488-1.01208496-2.2119751-1.33203125-1.0159912.00402832-1.97601318.0279541-2.86798095.3239746-.64001465.1640625-1.40002442.49597169-1.85205079 1.85205079-.31994629 1.3079834-.31994629 4.54394531-.31994629 5.9239502 0 .73608398-.54403686 1.4000244-1.27203369 1.52001952-1.29598999.19995118-1.61999511-.75195312-2.15200805-2.34399414-.2919922-.87597656-.67999268-2.0439453-1.07199097-3.02001953-.72799683-1.45202636-3.41998291-1.74401855-4.84799194-1.16394043-.01199341.00390625-.02001953.00793457-.03201294.0119629-.75198365.28393554-1.22399903.60803222-1.5.86804199.5039978.25195312.87600708.75598144.87600708 1.32800293 0 1.34790039.47201538 2.58789062.92800903 3.78796386.25198364.66003418.48397827 1.2800293.62399292 1.84802246.20401001.81201172.54800415 1.539917.87600708 2.24401856.26397705.56799316.51599121 1.10791015.69198608 1.6439209.22799683.8959961.55599976 2.20397949-.69198608 2.74401855-1.23199463.53601074-1.93200684-.53601074-2.44400024-1.32800293l-.33599854-.50793457c-.6080017-.56811523-.86401367-.81201172-1.42001343-1.0880127-.15600586-.0760498-.75598144-.24401855-2.92800903-.24401855-.34799194.01599121-1.74398804.539917-2.25997925 1.57202149-.52401733 1.0439453-.7000122 2.5.12399292 6.20397949.55200196 3.03198242 2.13998413 4.75598144 3.42001343 6.14001465.43197632.46801757.815979.88793945 1.11599731 1.28796386l3.11999512 3.5 4.33999634 4.3359375c1.35198975 1.3560791 1.51998901 3.58007813 1.42800903 5.18005371.86398316.01599122 1.76797486.04003907 2.67599488.06799317l.14935302.00415039c2.93725586.08276367 5.95184326.1677246 7.6706543-.07617188.6079712-.20397949 2.07196045-1.97998046 2.87597656-3.5880127.75598145-1.15600585 1.72003174-1.72399901 2.73999024-1.72399901 1.0159912 0 1.98400879.56799316 2.64801025 1.56408691.06799316.1159668.12799072.2319336.17199707.35595703.32403565.96801758 2.05603027 3.19995117 2.94000244 3.42004395.61199951.15600586 1.7039795.1599121 2.7039795.1040039-.08795167-.6920166-.16394044-1.5-.16394044-2.24804687 0-1.72399903.01599122-1.8199463.4159546-4.24401856.45599365-2.7080078 4.3920288-7.10803222 5.17602539-7.96801758.97998046-1.3239746 2.11999511-3.97192382 2.48400878-5.06396484z"/>
      </g>
    </g>
    <path fill="rgb(0,0,0)" fill-rule="evenodd" d="M40.52712677 23.0460464c-.621 0-1.125.672-1.125 1.5v13.6c0 .828.504 1.5 1.125 1.5s1.125-.672 1.125-1.5v-13.6c0-.828-.504-1.5-1.125-1.5"/>
    <path fill="rgb(0,0,0)" fill-rule="evenodd" d="M32.24104134 23.0460464c-.70323774.024-1.256995.716-1.23661129 1.544l.3363311 13.6c.0203837.812.58773008 1.456 1.2739814 1.456h.03737012c.70323774-.02 1.256995-.712 1.23661129-1.54l-.3363311-13.604c-.0203837-.828-.65567576-1.516-1.31135152-1.456"/>
    <path fill="rgb(0,0,0)" fill-rule="evenodd" d="M24.52912677 23.0460464c-.621 0-1.125.672-1.125 1.5v13.6c0 .828.504 1.5 1.125 1.5s1.125-.672 1.125-1.5v-13.6c0-.828-.504-1.5-1.125-1.5"/>
  </g>
</svg>
